<svg xmlns="http://www.w3.org/2000/svg" width="191.004" height="34.826" viewBox="0 0 191.004 34.826">
  <g id="グループ_26" data-name="グループ 26" transform="translate(-359.359 -107.634)">
    <g id="グループ_25" data-name="グループ 25">
      <g id="グループ_9" data-name="グループ 9">
        <path id="パス_220" data-name="パス 220" d="M448.008,120.738h-1.993v-2.056h8.161l-.063,2.617-.125,2.118q-.125,1.808-1.557,1.807h-1.994l-.311-2.181h1a.605.605,0,0,0,.747-.748l.063-1.557h-1.682a6.537,6.537,0,0,1-.811,2.492,4.874,4.874,0,0,1-2.242,2.243l-1.62-1.5v5.544h-2.865v.81h-1.994V119.118h4.859v4.673A3.847,3.847,0,0,0,448.008,120.738Zm-5.295,2.554h.872v-2.243h-.872Zm0,4.237h.872v-2.243h-.872Zm3.675-1.932H453.8v6.853h-2.181v-.81h-2.99v.873h-2.243Zm2.243,3.987h2.99v-1.993h-2.99Z" fill="#004b9e"/>
        <path id="パス_221" data-name="パス 221" d="M456.106,118.994a29.953,29.953,0,0,0,3.177-.312,13.2,13.2,0,0,0,2.991-.81l1.308,1.869a9.7,9.7,0,0,1-2.242.686v1.868h2.118v2.057h-1.807a8.461,8.461,0,0,0,1.807,2.118l-.872,2.18a5.337,5.337,0,0,1-1.246-1.308v5.233H459.1v-4.486a8.319,8.319,0,0,1-1.932,2.742l-1.121-2.306a10.912,10.912,0,0,0,1.62-2.118,8.308,8.308,0,0,0,1-2.055h-2.43v-2.057H459.1V120.8a14.814,14.814,0,0,1-2.181.249Zm7.725.436h6.355v12.4h-2.18v-.809h-1.994v.809h-2.181Zm2.181,9.531h1.994v-7.538h-1.994Z" fill="#004b9e"/>
        <path id="パス_222" data-name="パス 222" d="M476.665,120.8h-4.424v-1.993h14.143V120.8h-7.352a9.024,9.024,0,0,1-.5,1.682,11.017,11.017,0,0,1-.623,1.433h7.476v8.473h-2.243v-.748h-5.3v.81h-2.244v-5.233a10.879,10.879,0,0,1-1.183,1.121,4.983,4.983,0,0,1-1.433,1l-1.059-2.429a10.077,10.077,0,0,0,3.052-2.492A7.643,7.643,0,0,0,476.665,120.8Zm1.184,8.909h5.3v-3.8h-5.3Z" fill="#004b9e"/>
        <path id="パス_223" data-name="パス 223" d="M490.308,122.981h-2.056v-1.994h2.43v-2.928h2.18v2.928h1.682v1.994h-1.433a13.434,13.434,0,0,0,1.869,2.18l-1,2.056-1.121-1.246v6.542h-2.18v-5.358a9.8,9.8,0,0,1-1.558,2.429l-1.184-2.429A11.539,11.539,0,0,0,490.308,122.981Zm7.476,0h-2.617v-1.994h3.364v-2.928h2.181v2.928h1.932v1.994h-1.932v7.85a1.487,1.487,0,0,1-1.682,1.682h-1.806l-.686-2.305h1.37q.623.063.623-.561v-3.738a10.786,10.786,0,0,1-1.557,2.367,13.515,13.515,0,0,1-2.368,2.3l-1.308-2.056a12.085,12.085,0,0,0,2.991-2.865A10.417,10.417,0,0,0,497.784,122.981Z" fill="#004b9e"/>
        <path id="パス_224" data-name="パス 224" d="M504.138,129.46h6.043V121.3h-5.233v-1.994h12.833V121.3H512.61v8.161h5.857v1.994H504.138Z" fill="#004b9e"/>
        <path id="パス_225" data-name="パス 225" d="M523.45,128.712h-3.364v-1.806h6.1v-.374h-4.547v-1.495h4.547V124.6h-5.108v-1.745h2.928l-.312-.748h-3.675v-1.931h2.368l-.935-1.37,1.807-.81,1.246,1.807-.748.373h1.121v-2.242h2.056v2.242h.748v-2.242h1.994v2.242h1.744l-1.06-.436a5.012,5.012,0,0,0,1.122-1.806l1.993.81a5.646,5.646,0,0,1-.934,1.432h1.807v1.931h-3.365l-.373.748h2.865V124.6h-5.108v.436h4.423v1.495h-4.423v.374h6.106v1.806h-3.365a4.625,4.625,0,0,0,1.495.81,10.808,10.808,0,0,0,1.994.623L533.48,132.2a13.2,13.2,0,0,1-5.108-2.8v3.053h-2.181v-3.177a6.083,6.083,0,0,1-1.744,1.433,15.44,15.44,0,0,1-2.866,1.433l-1.557-1.994a13.991,13.991,0,0,0,2.119-.685A4.684,4.684,0,0,0,523.45,128.712Zm4.736-5.856.373-.748h-2.492l.312.748Z" fill="#004b9e"/>
        <path id="パス_226" data-name="パス 226" d="M536.782,125.847v-4.424h6.043v5.732h-2.18v-.312H538.9a13.612,13.612,0,0,1-.374,3.053,7.615,7.615,0,0,1-1.246,2.554l-1.557-2.055a5.007,5.007,0,0,0,.872-2.181A12.976,12.976,0,0,0,536.782,125.847Zm6.355-5.3h-6.915V118.5h6.915Zm-4.237,4.3h1.745v-1.558H538.9Zm4.423-1.246V118.62l1.184.311a11.264,11.264,0,0,0,2.243-.311,13.351,13.351,0,0,0,2.367-.748l1.246,1.994a15.023,15.023,0,0,1-4.859,1v1.806h4.859v2.119h-1.432v7.662h-2.244v-7.662H545.5l-.063,1.059a12.458,12.458,0,0,1-.747,3.737,7.606,7.606,0,0,1-2.243,2.929l-1.744-1.994a7.079,7.079,0,0,0,2.181-2.8Q543.323,126.968,543.323,123.6Z" fill="#004b9e"/>
      </g>
      <g id="グループ_10" data-name="グループ 10">
        <path id="パス_227" data-name="パス 227" d="M399.7,122.031v.552a8,8,0,0,0,.595-2.335l1.4.382a4.034,4.034,0,0,1-.212,1.019h.637v-1.4h1.4v1.4h1.953v1.359H403.52v1.019H405.9v1.36h-1.784a7.931,7.931,0,0,0,2.039,2.506l-.721,1.656a8.677,8.677,0,0,1-1.911-2.421v2.845h-1.4v-2.93a8.186,8.186,0,0,1-2,2.421l-1.061-1.275a7.066,7.066,0,0,0,1.4-1.316,4.586,4.586,0,0,0,1.019-1.486h-1.614l-.467,1.231L398.8,125.6v4.374h-1.444v-3.61q-.3.638-.722,1.4l-.807-1.4a10.807,10.807,0,0,0,1.486-3.015H396v-1.317h1.359v-1.826H398.8v1.826Zm-.848,1.317a11.792,11.792,0,0,0,.721,1.189v-.51h.977l-1.062-.679Zm1.868.679h1.4v-1.019H401.1A2.642,2.642,0,0,1,400.716,124.027Z" fill="#004b9e"/>
        <path id="パス_228" data-name="パス 228" d="M415.24,119.95a4.715,4.715,0,0,1,.6.637,5.764,5.764,0,0,1,.51.765l-.85.552h1.232v1.359H413.8a15.369,15.369,0,0,0,.212,2.124,13.462,13.462,0,0,0,.468,1.953q.254.893.678.764.255,0,.723-1.188l.976,1.358-.254.553q-.554,1.146-1.317,1.274-1.231.168-2.039-1.657a13.09,13.09,0,0,1-.6-2.123,24.216,24.216,0,0,1-.423-3.058h-5.267V121.9h5.224V120.12h1.571V121.9h1.231a3.024,3.024,0,0,0-.891-1.189Zm-4.544,5.9v1.869l1.487-.34.254,1.486a24.042,24.042,0,0,1-5.053.977l-.3-1.572,2.124-.254v-2.166h-1.656v-1.317H412.1v1.317Z" fill="#004b9e"/>
        <path id="パス_229" data-name="パス 229" d="M421.823,120.5l.382-.467,1.656.34-.17.212a5.574,5.574,0,0,0,1.53,1.317,11.922,11.922,0,0,0,2.506,1.189l-.765,1.529a4.987,4.987,0,0,1-1.741-.934v.977h-5.054v-.892a6.285,6.285,0,0,1-1.826.849l-.68-1.486a9.859,9.859,0,0,0,2.251-1.062A7.984,7.984,0,0,0,421.823,120.5Zm4.119,9.471-.424-.637q-2.676.341-6.71.68l-.3-1.444,1.018-.043,1.36-1.911h-2.718v-1.359h9.046v1.359h-4.374l-1.275,1.784,2.846-.34-.553-.679,1.318-.68a20.07,20.07,0,0,1,2.123,2.464Zm-5.1-6.667h3.779a7.889,7.889,0,0,1-1.868-1.614,4.85,4.85,0,0,1-.85.807Q421.271,123.007,420.847,123.306Z" fill="#004b9e"/>
        <path id="パス_230" data-name="パス 230" d="M431.506,123.178h-2.8v-1.316h1.528v-1.784h1.445v1.784h.51l.043-.085,1.146.806c-.113.255-.27.581-.468.978a8.615,8.615,0,0,1-.763,1.189,6.5,6.5,0,0,0,1.486,1.146l-.723,1.487q-.638-.6-1.146-1.105v3.7h-1.53v-2.93a9.413,9.413,0,0,1-1.061.977l-.637-1.487a9.958,9.958,0,0,0,1.7-1.529A7.617,7.617,0,0,0,431.506,123.178Zm.976,5.1h2.379v-3.737h-1.7v-1.4h1.7V120.12h1.487v3.016h1.784v1.4h-1.784v3.737h2.208v1.36h-6.074Z" fill="#004b9e"/>
      </g>
      <g id="グループ_12" data-name="グループ 12">
        <g id="グループ_11" data-name="グループ 11">
          <path id="パス_231" data-name="パス 231" d="M375.632,118.741" fill="#004b9e"/>
          <path id="パス_232" data-name="パス 232" d="M374.615,111.931h-2.07a1.021,1.021,0,0,0-1.017,1.018v5.85a1.02,1.02,0,0,0,1.017,1.017h2.07a1.02,1.02,0,0,0,1.017-1.017v-5.85A1.021,1.021,0,0,0,374.615,111.931Zm-.5,6.774H373.03c-.115,0-.186-.067-.186-.216l-.005-2.3h1.476v2.335C374.315,118.6,374.325,118.705,374.119,118.705Zm-1.28-3.663v-1.784c0-.076-.009-.177.2-.177h1.087c.117,0,.187.065.187.214l.005,1.747Z" fill="#004b9e"/>
          <path id="パス_233" data-name="パス 233" d="M377.288,113.188h-.639a.651.651,0,0,1-.679-.636.631.631,0,0,1,.646-.658c.188-.006,3.78,0,3.78,0a1.134,1.134,0,0,1,1.026.526,1.547,1.547,0,0,1,.068.968c-.039.249-.178.963-.23,1.137a7.306,7.306,0,0,1-.432,1.122.714.714,0,0,1-1.086.246.749.749,0,0,1-.3-.524,1.086,1.086,0,0,1,.129-.518,6.831,6.831,0,0,0,.474-1.68h-1.123s-.256.9-.364,1.208a7.063,7.063,0,0,1-.583,1.316.625.625,0,0,1-.565.365.8.8,0,0,1-.575-.219.734.734,0,0,1-.159-.8c.1-.257.458-1.172.556-1.55s.053-.293.053-.293" fill="#004b9e"/>
          <path id="パス_234" data-name="パス 234" d="M380.566,116.163h-3.319a1.02,1.02,0,0,0-1.017,1.016v1.593a1.019,1.019,0,0,0,1.017,1.015h3.319a1.018,1.018,0,0,0,1.016-1.015v-1.593A1.019,1.019,0,0,0,380.566,116.163Zm-.282,2.17a.1.1,0,0,1-.105.1h-2.532a.1.1,0,0,1-.108-.1v-.71a.1.1,0,0,1,.108-.1h2.532a.1.1,0,0,1,.105.1Z" fill="#004b9e"/>
          <path id="パス_235" data-name="パス 235" d="M376.048,134.34a2.142,2.142,0,0,0-1.357-.443h-.007v-.28h1.054a.654.654,0,1,0,0-1.307h-1.054v-.358h1.028a.654.654,0,0,0,0-1.308h-3.461a.654.654,0,1,0,0,1.308h1.126v.358h-1.1a.654.654,0,0,0,0,1.307h1.1v.28a2.361,2.361,0,0,0-1.425.459,1.827,1.827,0,0,0-.369,1.205v2.917a.654.654,0,0,0,1.308,0v-2.917a.52.52,0,0,1,.486-.332v3.249a.653.653,0,0,0,1.307,0v-3.249a.5.5,0,0,1,.463.486v2.763a.654.654,0,0,0,1.308,0v-2.917A1.47,1.47,0,0,0,376.048,134.34Z" fill="#004b9e"/>
          <path id="パス_236" data-name="パス 236" d="M380.984,131.016a.655.655,0,0,0-.655.654V132.7H378.2V131.67a.655.655,0,0,0-1.309,0v6.247a1.2,1.2,0,0,0,.289.758,1.4,1.4,0,0,0,.93.412h2.279a1.372,1.372,0,0,0,.826-.259.974.974,0,0,0,.426-.88V131.67A.654.654,0,0,0,380.984,131.016Zm-.69,6.74a.219.219,0,0,1-.136.071h-1.716a.32.32,0,0,1-.174-.044.35.35,0,0,1-.072-.234v-3.577h2.133v3.577S380.338,137.712,380.294,137.756Z" fill="#004b9e"/>
          <path id="パス_237" data-name="パス 237" d="M376.773,107.634a17.413,17.413,0,1,0,17.412,17.412A17.433,17.433,0,0,0,376.773,107.634Zm0,2.166a15.274,15.274,0,0,1,14.638,10.988H362.133A15.275,15.275,0,0,1,376.773,109.8Zm-15.1,13.155h30.2a15.289,15.289,0,0,1-.019,4.334H361.691a15.391,15.391,0,0,1-.021-4.334Zm15.1,17.339a15.273,15.273,0,0,1-14.6-10.838h29.188A15.272,15.272,0,0,1,376.773,140.294Z" fill="#004b9e"/>
        </g>
      </g>
    </g>
  </g>
</svg>
