<svg xmlns="http://www.w3.org/2000/svg" width="299.516" height="66.194" viewBox="0 0 299.516 66.194">
  <g id="グループ_108" data-name="グループ 108" transform="translate(-113.509 -82.201)">
    <g id="グループ_4" data-name="グループ 4" transform="translate(113.509 82.201)">
      <path id="パス_23" data-name="パス 23" d="M143.63,117.844H122.362q-8.849,0-8.853-8.676V82.282l11.578-.081v24.155l1.7,1.711h69.378l13.189.1.081,9.68h-30.2l-22.391-.072Z" transform="translate(-113.509 -82.201)" fill="#4d5b60"/>
      <path id="パス_24" data-name="パス 24" d="M146.352,82.2v24.074A6.2,6.2,0,0,0,148.57,109h68.6a4.723,4.723,0,0,0,1.883-4.087V82.282l11.659-.081v8.676l-.081,14.03v5.45q.079,7.422-8.681,7.486H143.642c-5.908-.048-8.844-2.577-8.844-7.567V82.2Z" transform="translate(-33.028 -82.201)" fill="#4d5b60"/>
      <path id="パス_25" data-name="パス 25" d="M200.915,103.9l-6.372.081H181.43l-13.61,13.787-11.559.072,13.266-16.158V97.173L156.084,82.2H167.82l13.959,12.931h44.606L240.343,82.2h11.731L238.651,97.173v4.513l13.266,16.158-11.573-.072-13.619-13.787H210.71Z" transform="translate(47.441 -82.201)" fill="#4d5b60"/>
      <path id="パス_26" data-name="パス 26" d="M177.774,91.291a3.672,3.672,0,0,1-2.534,3.561,11.875,11.875,0,0,1-4.68.774h-8.638V93.911h8.433c3.791,0,5.7-1,5.7-3V87.558h1.716Z" transform="translate(69.511 -61.949)" fill="#4d5b60"/>
      <path id="パス_27" data-name="パス 27" d="M181.831,89.284h-15.99V87.558h15.99a7.265,7.265,0,0,1,4.025.966,2.531,2.531,0,0,1,1.348,2.118,2.379,2.379,0,0,1-1.324,2.051,7.416,7.416,0,0,1-4.049.937H167.548v2h-1.707V90.154h1.707v1.769h14.284a5.273,5.273,0,0,0,2.357-.425c.531-.225.784-.535.784-.894s-.253-.664-.784-.9A5.267,5.267,0,0,0,181.831,89.284Z" transform="translate(84.327 -61.949)" fill="#4d5b60"/>
    </g>
    <g id="グループ_5" data-name="グループ 5" transform="translate(161.475 134.408)">
      <path id="パス_28" data-name="パス 28" d="M123.543,100.111c0-4.106,3.155-6.989,7.457-6.989A7.209,7.209,0,0,1,137,95.794l-2.844,2.543a3.616,3.616,0,0,0-2.926-1.568,3.351,3.351,0,0,0,0,6.688,3.611,3.611,0,0,0,2.926-1.563L137,104.432A7.212,7.212,0,0,1,131,107.109C126.7,107.109,123.543,104.222,123.543,100.111Z" transform="translate(-123.543 -93.122)" fill="#778b93"/>
      <path id="パス_29" data-name="パス 29" d="M139.82,93.186v13.376h-4.513v-4.929h-4.164v4.929h-4.513V93.186h4.513v4.737h4.164V93.186Z" transform="translate(-111.869 -92.88)" fill="#778b93"/>
      <path id="パス_30" data-name="パス 30" d="M129.847,93.186h4.513v13.376h-4.513Z" transform="translate(-99.711 -92.88)" fill="#778b93"/>
      <path id="パス_31" data-name="パス 31" d="M131.247,93.186h4.508v9.876H141.8v3.5h-10.55Z" transform="translate(-94.419 -92.88)" fill="#778b93"/>
      <path id="パス_32" data-name="パス 32" d="M133.715,93.186h6.592c4.47,0,7.548,2.538,7.548,6.683s-3.079,6.693-7.548,6.693h-6.592Zm6.4,9.862a3.174,3.174,0,1,0,0-6.348h-1.893v6.348Z" transform="translate(-85.089 -92.88)" fill="#778b93"/>
      <path id="パス_33" data-name="パス 33" d="M142.751,103.2h-1.224v3.365h-4.508V93.186h6.439c3.724,0,6.1,1.946,6.1,5.043a4.487,4.487,0,0,1-2.524,4.207l2.811,4.126h-4.819Zm.421-6.535h-1.644V99.8h1.644c1.238,0,1.831-.593,1.831-1.568S144.409,96.661,143.171,96.661Z" transform="translate(-72.598 -92.88)" fill="#778b93"/>
      <path id="パス_34" data-name="パス 34" d="M151.118,103.158v3.4H140V93.186H150.87v3.4H144.43v1.568h5.655V101.4H144.43v1.759Z" transform="translate(-61.333 -92.88)" fill="#778b93"/>
      <path id="パス_35" data-name="パス 35" d="M155.874,93.186v13.376h-3.7l-5.082-6.081v6.081h-4.4V93.186h3.71l5.081,6.076V93.186Z" transform="translate(-51.16 -92.88)" fill="#778b93"/>
      <path id="パス_36" data-name="パス 36" d="M145.806,93.186h3.628l-.287,5.732h-3.059Z" transform="translate(-39.38 -92.88)" fill="#778b93"/>
      <path id="パス_37" data-name="パス 37" d="M146.745,105.733l1.453-3.289a9.13,9.13,0,0,0,4.417,1.224c1.276,0,1.74-.268,1.74-.727,0-1.678-7.4-.325-7.4-5.311,0-2.486,2.084-4.508,6.234-4.508a10.66,10.66,0,0,1,5.043,1.162l-1.358,3.27a8.254,8.254,0,0,0-3.724-.994c-1.319,0-1.74.382-1.74.841,0,1.606,7.4.268,7.4,5.2,0,2.448-2.084,4.513-6.229,4.513A11.994,11.994,0,0,1,146.745,105.733Z" transform="translate(-35.83 -93.122)" fill="#778b93"/>
      <path id="パス_38" data-name="パス 38" d="M150.573,105.733l1.453-3.289a9.145,9.145,0,0,0,4.417,1.224c1.276,0,1.74-.268,1.74-.727,0-1.678-7.4-.325-7.4-5.311,0-2.486,2.084-4.508,6.234-4.508a10.68,10.68,0,0,1,5.048,1.162l-1.362,3.27a8.255,8.255,0,0,0-3.724-.994c-1.319,0-1.74.382-1.74.841,0,1.606,7.4.268,7.4,5.2,0,2.448-2.084,4.513-6.229,4.513A12.008,12.008,0,0,1,150.573,105.733Z" transform="translate(-21.359 -93.122)" fill="#778b93"/>
      <path id="パス_39" data-name="パス 39" d="M165.323,106.562l-.038-6.1-2.9,4.9h-1.989l-2.906-4.685v5.889h-4.111V93.186h3.71l4.355,7.128,4.245-7.128h3.71l.033,13.376Z" transform="translate(-10.759 -92.88)" fill="#778b93"/>
      <path id="パス_40" data-name="パス 40" d="M157.193,93.186h4.513v13.376h-4.513Z" transform="translate(3.667 -92.88)" fill="#778b93"/>
      <path id="パス_41" data-name="パス 41" d="M158.594,93.186H163.1v9.876h6.042v3.5h-10.55Z" transform="translate(8.964 -92.88)" fill="#778b93"/>
      <path id="パス_42" data-name="パス 42" d="M172.186,103.158v3.4H161.062V93.186h10.875v3.4h-6.444v1.568h5.66V101.4h-5.66v1.759Z" transform="translate(18.294 -92.88)" fill="#778b93"/>
      <path id="パス_43" data-name="パス 43" d="M163.578,105.733l1.453-3.289a9.13,9.13,0,0,0,4.417,1.224c1.276,0,1.74-.268,1.74-.727,0-1.678-7.4-.325-7.4-5.311,0-2.486,2.084-4.508,6.234-4.508a10.66,10.66,0,0,1,5.043,1.162l-1.358,3.27a8.254,8.254,0,0,0-3.724-.994c-1.319,0-1.74.382-1.74.841,0,1.606,7.4.268,7.4,5.2,0,2.448-2.084,4.513-6.229,4.513A11.994,11.994,0,0,1,163.578,105.733Z" transform="translate(27.805 -93.122)" fill="#778b93"/>
    </g>
  </g>
</svg>
